<svg width="719" height="204" viewBox="0 0 719 204" fill="none" xmlns="http://www.w3.org/2000/svg">
<path d="M448.793 157.832H423.732C401.974 157.832 389.541 145.01 389.541 123.252V83.8148H369.143V60.6967H389.541V30.002H412.853V60.6967H448.793V83.8148H412.853V123.252C412.853 130.245 416.739 134.714 423.732 134.714H448.793V157.832Z" fill="white"/>
<path d="M458.567 109.264C458.567 79.1523 480.714 57.9769 511.409 57.9769C536.47 57.9769 555.897 70.2159 564.833 105.185L578.432 157.832H554.148L548.903 137.822C539.967 152.975 523.842 160.551 507.524 160.551C483.045 160.551 458.567 143.456 458.567 109.264ZM482.657 109.264C482.657 125.777 494.313 137.433 511.215 137.433C528.116 137.433 539.772 125.777 539.772 109.264C539.772 92.7512 528.116 81.095 511.215 81.095C494.313 81.095 482.657 92.7512 482.657 109.264Z" fill="white"/>
<path d="M608.467 60.6967L629.836 89.6429L651.206 60.6967H677.821L643.629 106.933L681.318 157.832H653.343L629.253 125.194L604.97 157.832H578.355L615.46 107.904L580.492 60.6967H608.467Z" fill="white"/>
<path d="M688.947 157.832V60.6967H712.26V157.832H688.947ZM700.604 47.8749C691.084 47.8749 683.314 39.9098 683.314 30.3906C683.314 20.8713 691.084 12.9062 700.604 12.9062C710.123 12.9062 718.088 20.8713 718.088 30.3906C718.088 39.9098 710.123 47.8749 700.604 47.8749Z" fill="white"/>
<g clip-path="url(#clip0_4011_6925)">
<path d="M243.961 0.0078125C300.294 0.00797644 345.961 45.675 345.961 102.008C345.961 158.341 300.294 204.008 243.961 204.008H102.234C45.9013 204.008 0.234375 158.341 0.234375 102.008C0.234507 45.6749 45.9014 0.0078125 102.234 0.0078125H243.961ZM197.914 18.2363V104.188C197.914 138.853 219.141 159.963 249.437 159.963C279.733 159.963 301.731 138.853 301.731 108.836C301.731 74.7517 277.803 57.7092 254.068 57.709C242.104 57.709 230.14 62.1632 221.07 70.8779V18.2363H197.914ZM40.8262 60.4199L77.6826 157.251H93.3135L116.083 99.1523L138.661 157.251H154.291L191.148 60.4199H167.606L145.801 116.776L123.802 60.4199H108.943L87.3311 116.389L65.5254 60.4199H40.8262ZM249.437 80.7549C266.225 80.7549 277.803 92.3747 277.803 108.836C277.803 125.297 266.225 136.917 249.437 136.917C232.648 136.917 221.07 125.297 221.07 108.836C221.07 92.3747 232.648 80.7549 249.437 80.7549Z" fill="white"/>
</g>
<defs>
<clipPath id="clip0_4011_6925">
<rect x="0.232422" width="345.726" height="204" rx="91.2632" fill="white"/>
</clipPath>
</defs>
</svg>
