<svg width="708" height="204" viewBox="0 0 708 204" fill="none" xmlns="http://www.w3.org/2000/svg">
<path d="M239.929 2.21094C246.799 2.21094 250.234 2.21094 253.13 2.39062C299.922 5.31839 337.222 42.6184 340.149 89.4098C340.329 92.3058 340.329 95.7409 340.329 102.611C340.329 109.482 340.329 112.917 340.149 115.813C337.222 162.604 299.922 199.915 253.13 202.832C250.234 203.012 246.799 203.012 239.929 203.012H100.411C93.5405 203.012 90.1054 203.012 87.2094 202.832C40.4074 199.925 3.10745 162.625 0.179682 115.823C0 112.927 0 109.492 0 102.622C0 95.7515 0 92.3164 0.179682 89.4203C3.10745 42.6184 40.4074 5.31839 87.2094 2.39062C90.1054 2.21094 93.5405 2.21094 100.411 2.21094H239.929ZM194.596 20.158V104.768C194.596 138.897 215.492 159.676 245.319 159.676C275.147 159.676 296.793 138.897 296.804 109.344C296.804 75.7962 273.244 59.0117 249.885 59.0117C238.111 59.0117 226.336 63.3981 217.405 71.97V20.158H194.607H194.596ZM39.9635 61.6752L76.2487 157.002H91.638L114.056 99.8102L136.284 157.002H151.673L187.958 61.6752H164.779L143.313 117.155L121.656 61.6752H107.027L85.7508 116.775L64.284 61.6752H39.974H39.9635ZM245.319 81.694C261.85 81.694 273.244 93.1302 273.244 109.334C273.244 125.537 261.85 136.973 245.319 136.973C228.789 136.973 217.395 125.537 217.395 109.334C217.395 93.1302 228.789 81.694 245.319 81.694Z" fill="white"/>
<path d="M677.762 157.58V61.9564H700.708V157.58H677.762ZM689.23 49.3364C679.854 49.3364 672.213 41.4938 672.213 32.1292C672.213 22.7645 679.865 14.9219 689.23 14.9219C698.594 14.9219 706.437 22.7645 706.437 32.1292C706.437 41.4938 698.594 49.3364 689.23 49.3364Z" fill="white"/>
<path d="M598.533 61.9609L619.566 90.4564L640.599 61.9609H666.801L633.148 107.473L670.247 157.584H642.713L618.995 125.452L595.087 157.584H568.885L605.413 108.435L570.988 61.9609H598.522H598.533Z" fill="white"/>
<path d="M450.972 109.772C450.972 80.1244 472.777 59.2812 502.985 59.2812C527.654 59.2812 546.774 71.3306 555.579 105.756L568.97 157.579H545.062L539.893 137.877C531.1 152.791 515.224 160.253 499.158 160.253C475.06 160.253 450.961 143.426 450.961 109.762L450.972 109.772ZM474.69 109.772C474.69 126.028 486.168 137.507 502.805 137.507C519.441 137.507 530.92 126.028 530.92 109.772C530.92 93.5161 519.441 82.0375 502.805 82.0375C486.168 82.0375 474.69 93.5161 474.69 109.772Z" fill="white"/>
<path d="M447.083 157.584H422.414C400.989 157.584 388.75 144.964 388.75 123.539V84.7168H368.668V61.9605H388.75V31.7422H411.696V61.9605H447.072V84.7168H411.696V123.539C411.696 130.42 415.522 134.827 422.403 134.827H447.072V157.584H447.083Z" fill="white"/>
</svg>
